<svg width="781" height="225" viewBox="0 0 781 225" fill="none" xmlns="http://www.w3.org/2000/svg">
<path d="M413.209 147.513H418.579V174.425C418.579 183.376 411.299 190.597 402.348 190.597C393.457 190.597 386.177 183.376 386.177 174.425V147.513H391.488V174.425C391.488 180.452 396.381 185.405 402.348 185.405C408.375 185.405 413.209 180.452 413.209 174.425V147.513ZM443.798 167.384L460.208 190H454.062L437.831 167.682H431.744V190H426.612V147.513H441.351C444.037 147.513 446.543 148.587 448.453 150.497C450.362 152.406 451.436 154.912 451.436 157.598C451.436 162.312 448.154 166.25 443.798 167.384ZM431.744 152.645V162.551H441.351C444.096 162.551 446.304 160.343 446.304 157.598C446.304 154.853 444.096 152.645 441.351 152.645H431.744ZM481.116 162.67H498.779V181.467C494.543 187.136 487.859 190.656 480.818 190.656C468.585 190.656 458.62 180.691 458.62 168.398C458.62 156.166 468.585 146.2 480.818 146.2C486.845 146.2 492.454 148.587 496.572 152.764L492.633 156.225C489.53 153.122 485.293 151.451 480.818 151.451C471.449 151.451 463.871 159.03 463.871 168.398C463.871 177.827 471.449 185.405 480.818 185.405C485.771 185.405 490.306 183.317 493.588 179.677V167.921H481.116V162.67ZM507.707 190V147.513H534.559V152.645H513.077V162.61H531.814V167.921H513.077V184.749H534.022V190H507.707ZM570.369 190L547.634 156.404V190H542.263V147.513H548.111L570.787 181.109V147.513H576.157V190H570.369ZM594.943 190V152.764H583.724V147.513H611.532V152.764H600.313V190H594.943ZM651.155 185.405C656.465 185.405 661.418 182.959 664.7 178.662L668.877 181.765C664.641 187.434 658.136 190.656 651.155 190.656C638.862 190.656 628.897 180.691 628.897 168.398C628.897 156.166 638.862 146.2 651.155 146.2C658.196 146.2 664.7 149.482 668.937 155.151L664.7 158.254C661.478 153.898 656.525 151.451 651.155 151.451C641.726 151.451 634.148 159.03 634.148 168.398C634.148 177.827 641.726 185.405 651.155 185.405ZM704.871 190L700.157 177.648H682.792L678.078 190H672.35L688.7 147.513H694.249L710.659 190H704.871ZM698.068 172.397L691.504 155.211L684.881 172.397H698.068ZM731.847 167.384L748.257 190H742.111L725.88 167.682H719.793V190H714.661V147.513H729.4C732.086 147.513 734.592 148.587 736.501 150.497C738.411 152.406 739.485 154.912 739.485 157.598C739.485 162.312 736.203 166.25 731.847 167.384ZM719.793 152.645V162.551H729.4C732.145 162.551 734.353 160.343 734.353 157.598C734.353 154.853 732.145 152.645 729.4 152.645H719.793ZM751.234 190V147.513H778.087V152.645H756.605V162.61H775.342V167.921H756.605V184.749H777.55V190H751.234Z" fill="#4B5563"/>
<path d="M285.625 18.4332H321.764V111.869C321.764 121.199 318.216 129.872 311.645 136.443C305.074 143.014 296.401 146.43 287.07 146.43C278.003 146.43 269.33 143.145 262.89 136.837L262.627 136.574L272.352 129.478L272.483 129.609C276.557 133.026 281.682 134.997 287.07 134.997C299.686 134.997 310.068 124.484 310.068 111.869V29.9977H285.625V18.4332ZM392.408 15.5421C419.348 15.5421 441.425 37.4883 441.425 64.5595C441.425 91.4994 419.348 113.314 392.408 113.314C365.468 113.314 343.522 91.4994 343.522 64.5595C343.522 37.4883 365.468 15.5421 392.408 15.5421ZM392.408 101.75C412.909 101.75 429.467 84.9287 429.467 64.5595C429.467 44.059 412.909 27.1066 392.408 27.1066C371.907 27.1066 355.349 44.059 355.349 64.5595C355.349 84.9287 371.907 101.75 392.408 101.75ZM479.529 112V64.691L446.544 18.4332H461L485.574 52.7323L510.149 18.4332H524.473L491.488 64.691V112H479.529ZM541.688 112V18.4332H600.824V29.8663H553.515V51.8124H579.535V63.3768H553.515V112H541.688ZM676.72 18.4332H688.547V77.7009C688.547 97.413 672.515 113.314 652.803 113.314C633.222 113.314 617.19 97.413 617.19 77.7009V18.4332H628.885V77.7009C628.885 90.9738 639.661 101.881 652.803 101.881C666.076 101.881 676.72 90.9738 676.72 77.7009V18.4332ZM714.123 112V18.4332H725.95V100.567H777.201V112H714.123Z" fill="#722F37"/>
<circle cx="112.5" cy="112.5" r="112.5" fill="#722F37"/>
<mask id="mask0_71_56" style="mask-type:alpha" maskUnits="userSpaceOnUse" x="0" y="0" width="225" height="225">
<circle cx="112.5" cy="112.5" r="112.5" fill="#722F37"/>
</mask>
<g mask="url(#mask0_71_56)">
<path d="M111.907 -47.5889H178.567V124.758C178.567 141.968 172.023 157.966 159.903 170.086C147.783 182.206 131.784 188.509 114.574 188.509C97.8481 188.509 81.8497 182.449 69.9721 170.814L69.4873 170.329L87.4249 157.239L87.6673 157.482C95.1817 163.784 104.635 167.42 114.574 167.42C137.844 167.42 156.994 148.028 156.994 124.758V-26.2577H111.907V-47.5889Z" fill="white"/>
</g>
</svg>
