<svg width="1038" height="226" viewBox="0 0 1038 226" fill="none" xmlns="http://www.w3.org/2000/svg">
<path d="M492.475 210V167.513H507.274C509.96 167.513 512.525 168.587 514.435 170.497C516.345 172.406 517.419 174.972 517.419 177.657C517.419 183.267 512.824 187.742 507.274 187.742H497.786V210H492.475ZM507.274 182.551C509.9 182.551 512.048 180.343 512.048 177.657C512.048 174.972 509.9 172.705 507.274 172.705H497.786V182.551H507.274ZM527.546 182.67V185.475C529.277 183.565 534.349 182.073 537.512 182.073L536.258 187.205C531.485 187.205 527.546 190.845 527.546 195.44V210H522.414V182.67H527.546ZM545.92 178.254C544.011 178.254 542.519 176.703 542.519 174.853C542.519 173.003 544.011 171.511 545.92 171.511C547.77 171.511 549.262 173.003 549.262 174.853C549.262 176.703 547.77 178.254 545.92 178.254ZM543.354 210V182.67H548.486V210H543.354ZM599.986 185.952C602.493 188.458 603.865 191.74 603.865 195.321V210H598.733V195.321C598.733 190.845 595.093 187.145 590.678 187.145C586.202 187.145 582.562 190.845 582.562 195.321V210H577.43V195.321C577.43 190.845 573.85 187.145 569.374 187.145C564.959 187.145 561.319 190.845 561.319 195.321V210H556.187V182.67H561.319V185.296C563.646 183.505 566.45 182.133 569.374 182.133C572.895 182.133 576.237 183.684 578.743 186.191C579.22 186.668 579.638 187.145 579.996 187.682C580.414 187.145 580.832 186.668 581.309 186.191C583.815 183.684 587.157 182.133 590.678 182.133C594.198 182.133 597.48 183.446 599.986 185.952ZM632.008 185.833V182.67H637.14V210H632.008V206.837C629.442 208.986 626.22 210.597 622.819 210.597C619 210.597 615.419 209.165 612.674 206.479C609.989 203.734 608.497 200.154 608.497 196.335C608.497 192.516 609.989 188.936 612.674 186.191C615.419 183.505 619 182.073 622.819 182.073C626.22 182.073 629.442 183.684 632.008 185.833ZM622.819 205.584C627.891 205.584 632.008 201.407 632.008 196.335C632.008 191.263 627.891 187.086 622.819 187.086C617.747 187.086 613.629 191.263 613.629 196.335C613.629 201.407 617.747 205.584 622.819 205.584ZM649.689 182.67V185.475C651.419 183.565 656.491 182.073 659.654 182.073L658.401 187.205C653.627 187.205 649.689 190.845 649.689 195.44V210H644.557V182.67H649.689ZM690.773 182.67L673.348 225.634H667.799L674.184 210L663.085 182.67H668.634L676.929 203.197L685.223 182.67H690.773ZM730.057 205.405C735.368 205.405 740.321 202.959 743.603 198.662L747.78 201.765C743.543 207.434 737.039 210.656 730.057 210.656C717.765 210.656 707.799 200.691 707.799 188.398C707.799 176.166 717.765 166.2 730.057 166.2C737.098 166.2 743.603 169.482 747.84 175.151L743.603 178.254C740.38 173.898 735.428 171.451 730.057 171.451C720.629 171.451 713.05 179.03 713.05 188.398C713.05 197.827 720.629 205.405 730.057 205.405ZM775.479 185.833V182.67H780.611V210H775.479V206.837C772.913 208.986 769.691 210.597 766.29 210.597C762.471 210.597 758.89 209.165 756.145 206.479C753.46 203.734 751.968 200.154 751.968 196.335C751.968 192.516 753.46 188.936 756.145 186.191C758.89 183.505 762.471 182.073 766.29 182.073C769.691 182.073 772.913 183.684 775.479 185.833ZM766.29 205.584C771.362 205.584 775.479 201.407 775.479 196.335C775.479 191.263 771.362 187.086 766.29 187.086C761.217 187.086 757.1 191.263 757.1 196.335C757.1 201.407 761.217 205.584 766.29 205.584ZM793.16 182.67V185.475C794.89 183.565 799.962 182.073 803.125 182.073L801.872 187.205C797.098 187.205 793.16 190.845 793.16 195.44V210H788.028V182.67H793.16ZM830.367 193.232C830.785 195.679 830.725 197.051 830.665 197.588H809.601V197.707C810.197 202.243 813.599 205.644 817.537 205.704C819.984 205.584 822.49 204.57 824.221 202.839L828.517 205.405C827.443 206.599 826.249 207.613 824.877 208.449C822.788 209.702 820.222 210.358 817.657 210.477C814.076 210.477 810.794 208.986 808.407 206.3C806.259 203.973 804.946 200.989 804.708 197.707C804.648 197.29 804.648 196.872 804.648 196.454C804.648 195.38 804.767 194.306 805.006 193.232C805.543 190.726 806.736 188.458 808.407 186.608C810.794 183.983 814.136 182.491 817.657 182.491C821.237 182.491 824.519 183.983 826.966 186.608C828.636 188.458 829.889 190.726 830.367 193.232ZM810.018 193.292H825.295L825.235 193.172C824.042 189.652 820.998 187.265 817.657 187.265C814.375 187.265 811.331 189.652 810.078 193.172L810.018 193.292Z" fill="#424548"/>
<path d="M303.619 31.4332H339.758V124.869C339.758 134.199 336.21 142.872 329.639 149.443C323.069 156.014 314.395 159.43 305.065 159.43C295.997 159.43 287.324 156.145 280.885 149.837L280.622 149.574L290.347 142.478L290.478 142.609C294.552 146.026 299.677 147.997 305.065 147.997C317.681 147.997 328.062 137.484 328.062 124.869V42.9977H303.619V31.4332ZM405.996 72.5658C412.041 78.6109 415.326 86.4957 415.326 94.9062C415.326 103.317 412.041 111.202 405.996 117.247C400.082 123.16 392.198 126.446 383.787 126.446C375.377 126.446 367.492 123.16 361.447 117.247C355.533 111.202 352.248 103.317 352.248 94.9062C352.248 86.4957 355.533 78.6109 361.447 72.5658C367.492 66.6522 375.377 63.4983 383.787 63.4983C392.198 63.4983 400.082 66.6522 405.996 72.5658ZM383.787 115.144C394.957 115.144 404.025 106.076 404.025 94.9062C404.025 83.736 394.957 74.7999 383.787 74.7999C372.617 74.7999 363.549 83.736 363.549 94.9062C363.549 106.076 372.617 115.144 383.787 115.144ZM481.846 64.8124L443.473 159.43H431.251L445.312 125L420.869 64.8124H433.091L451.358 110.019L469.624 64.8124H481.846ZM517.966 28.5421H531.239L528.348 39.3181H518.229C513.498 39.3181 509.293 43.6547 509.293 48.5171V64.8124H527.822V75.5883H509.293V125H497.991V75.5883H489.055V64.8124H497.991V48.2542C497.991 37.2155 506.927 28.5421 517.966 28.5421ZM548.103 118.561C542.846 113.436 539.955 106.602 539.955 99.2429V64.8124H551.257V99.2429C551.257 108.048 558.616 115.275 567.815 115.275C576.883 115.275 584.373 108.048 584.373 99.2429V64.8124H595.675V99.2429C595.675 106.602 592.652 113.436 587.396 118.561C582.139 123.686 575.174 126.314 567.815 126.314C560.324 126.314 553.359 123.686 548.103 118.561ZM622.082 125H610.78V28.5421H622.082V125Z" fill="#E17A5F"/>
<path d="M709.525 114.881C721.22 114.881 732.128 109.493 739.356 100.031L748.555 106.865C739.224 119.349 724.9 126.446 709.525 126.446C682.453 126.446 660.507 104.499 660.507 77.4281C660.507 50.4883 682.453 28.5421 709.525 28.5421C725.031 28.5421 739.356 35.7699 748.686 48.2542L739.356 55.0878C732.259 45.4945 721.352 40.1066 709.525 40.1066C688.761 40.1066 672.072 56.7961 672.072 77.4281C672.072 98.1915 688.761 114.881 709.525 114.881ZM772.102 125H760.801V28.5421H772.102V125ZM797.967 55.0878C793.762 55.0878 790.477 51.671 790.477 47.5972C790.477 43.5233 793.762 40.238 797.967 40.238C802.041 40.238 805.326 43.5233 805.326 47.5972C805.326 51.671 802.041 55.0878 797.967 55.0878ZM792.316 125V64.8124H803.618V125H792.316ZM873.221 72.0402C878.609 77.5595 881.632 84.7873 881.632 92.6722V125H870.33V92.6722C870.33 82.8161 862.445 74.6684 852.589 74.6684C842.865 74.6684 834.848 82.8161 834.848 92.6722V125H823.547V64.8124H834.848V70.5946C839.973 66.6522 846.15 63.6297 852.589 63.6297C860.343 63.6297 867.702 66.5208 873.221 72.0402ZM903.714 55.0878C899.509 55.0878 896.224 51.671 896.224 47.5972C896.224 43.5233 899.509 40.238 903.714 40.238C907.788 40.238 911.074 43.5233 911.074 47.5972C911.074 51.671 907.788 55.0878 903.714 55.0878ZM898.064 125V64.8124H909.365V125H898.064ZM970.265 106.733L979.464 113.436C978.413 114.75 977.362 116.064 976.179 117.247C970.265 123.16 962.38 126.314 953.97 126.314C945.559 126.314 937.543 123.16 931.63 117.247C925.716 111.202 922.431 103.317 922.431 94.9062C922.431 86.4957 925.716 78.6109 931.63 72.5658C937.543 66.6522 945.559 63.4983 953.97 63.4983C962.38 63.4983 970.265 66.6522 976.179 72.5658C977.362 73.7485 978.413 74.9313 979.333 76.2454L970.265 82.9475C966.586 77.9538 960.672 74.537 953.97 74.537C942.8 74.537 933.732 83.736 933.732 94.9062C933.732 106.076 942.8 115.275 953.97 115.275C960.672 115.275 966.586 111.859 970.265 106.733ZM1030.72 98.0601C1032.56 100.688 1033.48 103.842 1033.48 107.259C1033.48 110.676 1032.56 113.961 1030.59 116.721C1028.75 119.481 1026.12 121.583 1022.57 123.292C1019.42 124.737 1015.61 125.526 1011.8 125.526C1009.7 125.526 1007.72 125.263 1005.62 124.869C999.051 123.554 992.875 120.663 987.618 116.195L994.714 108.442C1001.68 114.355 1007.59 115.538 1011.27 115.538C1013.77 115.538 1016.13 115.013 1018.24 114.093C1019.95 113.304 1022.97 111.333 1022.97 107.259C1022.97 103.185 1019.42 100.688 1011.27 99.2429C1010.88 99.1114 1000.89 97.2716 997.211 95.169C991.692 92.0151 988.801 87.1528 988.801 81.1077C988.801 77.8224 989.852 74.6684 991.692 71.9087C993.4 69.5433 995.766 67.7035 999.183 66.1265C1002.34 64.681 1005.75 63.8925 1009.56 63.8925C1011.01 63.8925 1012.59 64.0239 1014.03 64.1553C1019.81 65.0752 1025.47 67.5721 1030.2 71.3831L1023.63 79.0051C1017.71 74.4056 1012.59 73.7485 1010.09 73.7485C1007.72 73.7485 1005.49 74.1428 1003.65 75.0627C1001.02 76.3768 999.314 78.7423 999.314 81.1077C999.314 85.0501 1002.47 87.1528 1010.48 88.8612C1010.62 88.8612 1021.39 91.2266 1024.41 92.935C1027.96 94.7748 1029.28 96.2203 1030.72 98.0601Z" fill="#5E5F61"/>
<circle cx="112.5" cy="112.5" r="112.5" fill="#E17A5F"/>
<mask id="mask0_71_57" style="mask-type:alpha" maskUnits="userSpaceOnUse" x="0" y="0" width="225" height="225">
<circle cx="112.5" cy="112.5" r="112.5" fill="#2D5A4A"/>
</mask>
<g mask="url(#mask0_71_57)">
<path d="M111.907 -47.5889H178.567V124.758C178.567 141.968 172.023 157.966 159.903 170.086C147.783 182.206 131.784 188.509 114.574 188.509C97.8481 188.509 81.8497 182.449 69.9721 170.814L69.4873 170.329L87.4249 157.239L87.6673 157.482C95.1817 163.784 104.635 167.42 114.574 167.42C137.844 167.42 156.994 148.028 156.994 124.758V-26.2577H111.907V-47.5889Z" fill="white"/>
</g>
</svg>
