<svg width="781" height="225" viewBox="0 0 781 225" fill="none" xmlns="http://www.w3.org/2000/svg">
<path d="M398.8 190L386.268 168.1L373.797 190H368.068L356.193 147.513H361.803L371.649 183.018L383.285 162.61H389.312L400.888 183.018L410.794 147.513H416.403L404.528 190H398.8ZM439.067 166.191C441.812 168.936 443.303 172.516 443.303 176.335C443.303 180.154 441.812 183.734 439.067 186.479C436.381 189.165 432.801 190.656 428.982 190.656C425.163 190.656 421.583 189.165 418.838 186.479C416.152 183.734 414.661 180.154 414.661 176.335C414.661 172.516 416.152 168.936 418.838 166.191C421.583 163.505 425.163 162.073 428.982 162.073C432.801 162.073 436.381 163.505 439.067 166.191ZM428.982 185.525C434.054 185.525 438.172 181.407 438.172 176.335C438.172 171.263 434.054 167.205 428.982 167.205C423.91 167.205 419.792 171.263 419.792 176.335C419.792 181.407 423.91 185.525 428.982 185.525ZM491.928 165.952C494.434 168.458 495.807 171.74 495.807 175.321V190H490.675V175.321C490.675 170.845 487.035 167.145 482.619 167.145C478.143 167.145 474.503 170.845 474.503 175.321V190H469.372V175.321C469.372 170.845 465.791 167.145 461.316 167.145C456.9 167.145 453.26 170.845 453.26 175.321V190H448.128V162.67H453.26V165.296C455.587 163.505 458.392 162.133 461.316 162.133C464.836 162.133 468.178 163.684 470.684 166.191C471.162 166.668 471.579 167.145 471.937 167.682C472.355 167.145 472.773 166.668 473.25 166.191C475.757 163.684 479.098 162.133 482.619 162.133C486.14 162.133 489.422 163.446 491.928 165.952ZM525.983 173.232C526.4 175.679 526.341 177.051 526.281 177.588H505.217V177.707C505.813 182.243 509.215 185.644 513.153 185.704C515.6 185.584 518.106 184.57 519.836 182.839L524.133 185.405C523.059 186.599 521.865 187.613 520.493 188.449C518.404 189.702 515.838 190.358 513.272 190.477C509.692 190.477 506.41 188.986 504.023 186.3C501.875 183.973 500.562 180.989 500.323 177.707C500.264 177.29 500.264 176.872 500.264 176.454C500.264 175.38 500.383 174.306 500.622 173.232C501.159 170.726 502.352 168.458 504.023 166.608C506.41 163.983 509.752 162.491 513.272 162.491C516.853 162.491 520.135 163.983 522.581 166.608C524.252 168.458 525.505 170.726 525.983 173.232ZM505.634 173.292H520.911L520.851 173.172C519.657 169.652 516.614 167.265 513.272 167.265C509.99 167.265 506.947 169.652 505.694 173.172L505.634 173.292ZM553.792 165.952C556.238 168.458 557.611 171.74 557.611 175.321V190H552.479V175.321C552.479 170.845 548.898 167.145 544.423 167.145C540.007 167.145 536.367 170.845 536.367 175.321V190H531.235V162.67H536.367V165.296C538.694 163.505 541.499 162.133 544.423 162.133C547.944 162.133 551.285 163.446 553.792 165.952ZM570.085 148.05C569.727 149.442 569.269 150.954 568.712 152.585C568.155 154.216 567.539 155.847 566.862 157.478C566.226 159.07 565.589 160.581 564.953 162.014H561.074C561.352 160.9 561.631 159.706 561.909 158.433C562.228 157.16 562.506 155.887 562.745 154.614C563.023 153.301 563.262 152.028 563.461 150.795C563.7 149.562 563.898 148.428 564.058 147.394H569.667L570.085 148.05ZM592.152 177.767C592.987 178.961 593.405 180.393 593.405 181.944C593.405 183.496 592.987 184.987 592.092 186.241C591.257 187.494 590.063 188.449 588.452 189.224C587.02 189.881 585.289 190.239 583.559 190.239C582.604 190.239 581.709 190.119 580.754 189.94C577.771 189.344 574.966 188.031 572.579 186.002L575.801 182.481C578.964 185.167 581.649 185.704 583.32 185.704C584.454 185.704 585.528 185.465 586.483 185.047C587.259 184.689 588.631 183.794 588.631 181.944C588.631 180.094 587.02 178.961 583.32 178.304C583.141 178.244 578.606 177.409 576.935 176.454C574.429 175.022 573.116 172.814 573.116 170.069C573.116 168.578 573.594 167.145 574.429 165.892C575.205 164.818 576.279 163.983 577.83 163.267C579.263 162.61 580.814 162.252 582.545 162.252C583.201 162.252 583.917 162.312 584.573 162.372C587.199 162.789 589.765 163.923 591.913 165.654L588.929 169.115C586.244 167.026 583.917 166.728 582.783 166.728C581.709 166.728 580.695 166.907 579.859 167.324C578.666 167.921 577.89 168.995 577.89 170.069C577.89 171.86 579.322 172.814 582.962 173.59C583.022 173.59 587.915 174.664 589.288 175.44C590.899 176.275 591.495 176.932 592.152 177.767ZM640.818 190V167.861H619.038V190H613.667V147.513H619.038V162.67H640.818V147.513H646.189V190H640.818ZM677.67 173.232C678.088 175.679 678.028 177.051 677.969 177.588H656.904V177.707C657.501 182.243 660.902 185.644 664.841 185.704C667.287 185.584 669.793 184.57 671.524 182.839L675.82 185.405C674.746 186.599 673.553 187.613 672.18 188.449C670.092 189.702 667.526 190.358 664.96 190.477C661.38 190.477 658.098 188.986 655.711 186.3C653.562 183.973 652.25 180.989 652.011 177.707C651.951 177.29 651.951 176.872 651.951 176.454C651.951 175.38 652.071 174.306 652.309 173.232C652.846 170.726 654.04 168.458 655.711 166.608C658.098 163.983 661.439 162.491 664.96 162.491C668.54 162.491 671.822 163.983 674.269 166.608C675.94 168.458 677.193 170.726 677.67 173.232ZM657.322 173.292H672.598L672.538 173.172C671.345 169.652 668.302 167.265 664.96 167.265C661.678 167.265 658.635 169.652 657.381 173.172L657.322 173.292ZM705.24 165.833V162.67H710.372V190H705.24V186.837C702.674 188.986 699.452 190.597 696.051 190.597C692.232 190.597 688.651 189.165 685.906 186.479C683.221 183.734 681.729 180.154 681.729 176.335C681.729 172.516 683.221 168.936 685.906 166.191C688.651 163.505 692.232 162.073 696.051 162.073C699.452 162.073 702.674 163.684 705.24 165.833ZM696.051 185.584C701.123 185.584 705.24 181.407 705.24 176.335C705.24 171.263 701.123 167.086 696.051 167.086C690.979 167.086 686.861 171.263 686.861 176.335C686.861 181.407 690.979 185.584 696.051 185.584ZM723.082 190H717.95V146.2H723.082V190ZM741.106 190C736.093 190 732.036 186.002 732.036 180.93V167.563H727.978V162.67H732.036V152.108H737.168V162.67H745.581V167.563H737.168V180.81C737.168 183.018 739.077 185.107 741.225 185.107H745.82L747.133 190H741.106ZM773.884 165.952C776.331 168.458 777.704 171.74 777.704 175.321V190H772.572V175.321C772.572 170.845 768.991 167.145 764.516 167.145C760.1 167.145 756.46 170.845 756.46 175.321V190H751.328V146.2H756.46V165.296C758.787 163.505 761.592 162.133 764.516 162.133C768.037 162.133 771.378 163.446 773.884 165.952Z" fill="#4B5563"/>
<path d="M285.625 18.4332H321.764V111.869C321.764 121.199 318.216 129.872 311.645 136.443C305.074 143.014 296.401 146.43 287.07 146.43C278.003 146.43 269.33 143.145 262.89 136.837L262.627 136.574L272.352 129.478L272.483 129.609C276.557 133.026 281.682 134.997 287.07 134.997C299.686 134.997 310.068 124.484 310.068 111.869V29.9977H285.625V18.4332ZM392.408 15.5421C419.348 15.5421 441.425 37.4883 441.425 64.5595C441.425 91.4994 419.348 113.314 392.408 113.314C365.468 113.314 343.522 91.4994 343.522 64.5595C343.522 37.4883 365.468 15.5421 392.408 15.5421ZM392.408 101.75C412.909 101.75 429.467 84.9287 429.467 64.5595C429.467 44.059 412.909 27.1066 392.408 27.1066C371.907 27.1066 355.349 44.059 355.349 64.5595C355.349 84.9287 371.907 101.75 392.408 101.75ZM479.529 112V64.691L446.544 18.4332H461L485.574 52.7323L510.149 18.4332H524.473L491.488 64.691V112H479.529ZM541.688 112V18.4332H600.824V29.8663H553.515V51.8124H579.535V63.3768H553.515V112H541.688ZM676.72 18.4332H688.547V77.7009C688.547 97.413 672.515 113.314 652.803 113.314C633.222 113.314 617.19 97.413 617.19 77.7009V18.4332H628.885V77.7009C628.885 90.9738 639.661 101.881 652.803 101.881C666.076 101.881 676.72 90.9738 676.72 77.7009V18.4332ZM714.123 112V18.4332H725.95V100.567H777.201V112H714.123Z" fill="#6A4B5E"/>
<circle cx="112.5" cy="112.5" r="112.5" fill="#6A4B5E"/>
<mask id="mask0_71_55" style="mask-type:alpha" maskUnits="userSpaceOnUse" x="0" y="0" width="225" height="225">
<circle cx="112.5" cy="112.5" r="112.5" fill="#2D5A4A"/>
</mask>
<g mask="url(#mask0_71_55)">
<path d="M111.907 -47.5889H178.567V124.758C178.567 141.968 172.023 157.966 159.903 170.086C147.783 182.206 131.784 188.509 114.574 188.509C97.8481 188.509 81.8497 182.449 69.9721 170.814L69.4873 170.329L87.4249 157.239L87.6673 157.482C95.1817 163.784 104.635 167.42 114.574 167.42C137.844 167.42 156.994 148.028 156.994 124.758V-26.2577H111.907V-47.5889Z" fill="white"/>
</g>
</svg>
