<svg width="1038" height="225" viewBox="0 0 1038 225" fill="none" xmlns="http://www.w3.org/2000/svg">
<path d="M496.8 210L484.268 188.1L471.797 210H466.068L454.193 167.513H459.803L469.649 203.018L481.285 182.61H487.312L498.888 203.018L508.794 167.513H514.403L502.528 210H496.8ZM537.067 186.191C539.812 188.936 541.303 192.516 541.303 196.335C541.303 200.154 539.812 203.734 537.067 206.479C534.381 209.165 530.801 210.656 526.982 210.656C523.163 210.656 519.583 209.165 516.838 206.479C514.152 203.734 512.661 200.154 512.661 196.335C512.661 192.516 514.152 188.936 516.838 186.191C519.583 183.505 523.163 182.073 526.982 182.073C530.801 182.073 534.381 183.505 537.067 186.191ZM526.982 205.525C532.054 205.525 536.172 201.407 536.172 196.335C536.172 191.263 532.054 187.205 526.982 187.205C521.91 187.205 517.792 191.263 517.792 196.335C517.792 201.407 521.91 205.525 526.982 205.525ZM589.928 185.952C592.434 188.458 593.807 191.74 593.807 195.321V210H588.675V195.321C588.675 190.845 585.035 187.145 580.619 187.145C576.143 187.145 572.503 190.845 572.503 195.321V210H567.372V195.321C567.372 190.845 563.791 187.145 559.316 187.145C554.9 187.145 551.26 190.845 551.26 195.321V210H546.128V182.67H551.26V185.296C553.587 183.505 556.392 182.133 559.316 182.133C562.836 182.133 566.178 183.684 568.684 186.191C569.162 186.668 569.579 187.145 569.937 187.682C570.355 187.145 570.773 186.668 571.25 186.191C573.757 183.684 577.098 182.133 580.619 182.133C584.14 182.133 587.422 183.446 589.928 185.952ZM623.983 193.232C624.4 195.679 624.341 197.051 624.281 197.588H603.217V197.707C603.813 202.243 607.215 205.644 611.153 205.704C613.6 205.584 616.106 204.57 617.836 202.839L622.133 205.405C621.059 206.599 619.865 207.613 618.493 208.449C616.404 209.702 613.838 210.358 611.272 210.477C607.692 210.477 604.41 208.986 602.023 206.3C599.875 203.973 598.562 200.989 598.323 197.707C598.264 197.29 598.264 196.872 598.264 196.454C598.264 195.38 598.383 194.306 598.622 193.232C599.159 190.726 600.352 188.458 602.023 186.608C604.41 183.983 607.752 182.491 611.272 182.491C614.853 182.491 618.135 183.983 620.581 186.608C622.252 188.458 623.505 190.726 623.983 193.232ZM603.634 193.292H618.911L618.851 193.172C617.657 189.652 614.614 187.265 611.272 187.265C607.99 187.265 604.947 189.652 603.694 193.172L603.634 193.292ZM651.792 185.952C654.238 188.458 655.611 191.74 655.611 195.321V210H650.479V195.321C650.479 190.845 646.898 187.145 642.423 187.145C638.007 187.145 634.367 190.845 634.367 195.321V210H629.235V182.67H634.367V185.296C636.694 183.505 639.499 182.133 642.423 182.133C645.944 182.133 649.285 183.446 651.792 185.952ZM668.085 168.05C667.727 169.442 667.269 170.954 666.712 172.585C666.155 174.216 665.539 175.847 664.862 177.478C664.226 179.07 663.589 180.581 662.953 182.014H659.074C659.352 180.9 659.631 179.706 659.909 178.433C660.228 177.16 660.506 175.887 660.745 174.614C661.023 173.301 661.262 172.028 661.461 170.795C661.7 169.562 661.898 168.428 662.058 167.394H667.667L668.085 168.05ZM690.152 197.767C690.987 198.961 691.405 200.393 691.405 201.944C691.405 203.496 690.987 204.987 690.092 206.241C689.257 207.494 688.063 208.449 686.452 209.224C685.02 209.881 683.289 210.239 681.559 210.239C680.604 210.239 679.709 210.119 678.754 209.94C675.771 209.344 672.966 208.031 670.579 206.002L673.801 202.481C676.964 205.167 679.649 205.704 681.32 205.704C682.454 205.704 683.528 205.465 684.483 205.047C685.259 204.689 686.631 203.794 686.631 201.944C686.631 200.094 685.02 198.961 681.32 198.304C681.141 198.244 676.606 197.409 674.935 196.454C672.429 195.022 671.116 192.814 671.116 190.069C671.116 188.578 671.594 187.145 672.429 185.892C673.205 184.818 674.279 183.983 675.83 183.267C677.263 182.61 678.814 182.252 680.545 182.252C681.201 182.252 681.917 182.312 682.573 182.372C685.199 182.789 687.765 183.923 689.913 185.654L686.929 189.115C684.244 187.026 681.917 186.728 680.783 186.728C679.709 186.728 678.695 186.907 677.859 187.324C676.666 187.921 675.89 188.995 675.89 190.069C675.89 191.86 677.322 192.814 680.962 193.59C681.022 193.59 685.915 194.664 687.288 195.44C688.899 196.275 689.495 196.932 690.152 197.767ZM738.818 210V187.861H717.038V210H711.667V167.513H717.038V182.67H738.818V167.513H744.189V210H738.818ZM775.67 193.232C776.088 195.679 776.028 197.051 775.969 197.588H754.904V197.707C755.501 202.243 758.902 205.644 762.841 205.704C765.287 205.584 767.793 204.57 769.524 202.839L773.82 205.405C772.746 206.599 771.553 207.613 770.18 208.449C768.092 209.702 765.526 210.358 762.96 210.477C759.38 210.477 756.098 208.986 753.711 206.3C751.562 203.973 750.25 200.989 750.011 197.707C749.951 197.29 749.951 196.872 749.951 196.454C749.951 195.38 750.071 194.306 750.309 193.232C750.846 190.726 752.04 188.458 753.711 186.608C756.098 183.983 759.439 182.491 762.96 182.491C766.54 182.491 769.822 183.983 772.269 186.608C773.94 188.458 775.193 190.726 775.67 193.232ZM755.322 193.292H770.598L770.538 193.172C769.345 189.652 766.302 187.265 762.96 187.265C759.678 187.265 756.635 189.652 755.381 193.172L755.322 193.292ZM803.24 185.833V182.67H808.372V210H803.24V206.837C800.674 208.986 797.452 210.597 794.051 210.597C790.232 210.597 786.651 209.165 783.906 206.479C781.221 203.734 779.729 200.154 779.729 196.335C779.729 192.516 781.221 188.936 783.906 186.191C786.651 183.505 790.232 182.073 794.051 182.073C797.452 182.073 800.674 183.684 803.24 185.833ZM794.051 205.584C799.123 205.584 803.24 201.407 803.24 196.335C803.24 191.263 799.123 187.086 794.051 187.086C788.979 187.086 784.861 191.263 784.861 196.335C784.861 201.407 788.979 205.584 794.051 205.584ZM821.082 210H815.95V166.2H821.082V210ZM839.106 210C834.093 210 830.036 206.002 830.036 200.93V187.563H825.978V182.67H830.036V172.108H835.168V182.67H843.581V187.563H835.168V200.81C835.168 203.018 837.077 205.107 839.225 205.107H843.82L845.133 210H839.106ZM871.884 185.952C874.331 188.458 875.704 191.74 875.704 195.321V210H870.572V195.321C870.572 190.845 866.991 187.145 862.516 187.145C858.1 187.145 854.46 190.845 854.46 195.321V210H849.328V166.2H854.46V185.296C856.787 183.505 859.592 182.133 862.516 182.133C866.037 182.133 869.378 183.446 871.884 185.952Z" fill="#4B5563"/>
<path d="M303.619 31.4332H339.758V124.869C339.758 134.199 336.21 142.872 329.639 149.443C323.069 156.014 314.395 159.43 305.065 159.43C295.997 159.43 287.324 156.145 280.885 149.837L280.622 149.574L290.347 142.478L290.478 142.609C294.552 146.026 299.677 147.997 305.065 147.997C317.681 147.997 328.062 137.484 328.062 124.869V42.9977H303.619V31.4332ZM405.996 72.5658C412.041 78.6109 415.326 86.4957 415.326 94.9062C415.326 103.317 412.041 111.202 405.996 117.247C400.082 123.16 392.198 126.446 383.787 126.446C375.377 126.446 367.492 123.16 361.447 117.247C355.533 111.202 352.248 103.317 352.248 94.9062C352.248 86.4957 355.533 78.6109 361.447 72.5658C367.492 66.6522 375.377 63.4983 383.787 63.4983C392.198 63.4983 400.082 66.6522 405.996 72.5658ZM383.787 115.144C394.957 115.144 404.025 106.076 404.025 94.9062C404.025 83.736 394.957 74.7999 383.787 74.7999C372.617 74.7999 363.549 83.736 363.549 94.9062C363.549 106.076 372.617 115.144 383.787 115.144ZM481.846 64.8124L443.473 159.43H431.251L445.312 125L420.869 64.8124H433.091L451.358 110.019L469.624 64.8124H481.846ZM517.966 28.5421H531.239L528.348 39.3181H518.229C513.498 39.3181 509.293 43.6547 509.293 48.5171V64.8124H527.822V75.5883H509.293V125H497.991V75.5883H489.055V64.8124H497.991V48.2542C497.991 37.2155 506.927 28.5421 517.966 28.5421ZM548.103 118.561C542.846 113.436 539.955 106.602 539.955 99.2429V64.8124H551.257V99.2429C551.257 108.048 558.616 115.275 567.815 115.275C576.883 115.275 584.373 108.048 584.373 99.2429V64.8124H595.675V99.2429C595.675 106.602 592.652 113.436 587.396 118.561C582.139 123.686 575.174 126.314 567.815 126.314C560.324 126.314 553.359 123.686 548.103 118.561ZM622.082 125H610.78V28.5421H622.082V125Z" fill="#2D5A4A"/>
<path d="M709.525 114.881C721.22 114.881 732.128 109.493 739.356 100.031L748.555 106.865C739.224 119.349 724.9 126.446 709.525 126.446C682.453 126.446 660.507 104.499 660.507 77.4281C660.507 50.4883 682.453 28.5421 709.525 28.5421C725.031 28.5421 739.356 35.7699 748.686 48.2542L739.356 55.0878C732.259 45.4945 721.352 40.1066 709.525 40.1066C688.761 40.1066 672.072 56.7961 672.072 77.4281C672.072 98.1915 688.761 114.881 709.525 114.881ZM772.102 125H760.801V28.5421H772.102V125ZM797.967 55.0878C793.762 55.0878 790.477 51.671 790.477 47.5972C790.477 43.5233 793.762 40.238 797.967 40.238C802.041 40.238 805.326 43.5233 805.326 47.5972C805.326 51.671 802.041 55.0878 797.967 55.0878ZM792.316 125V64.8124H803.618V125H792.316ZM873.221 72.0402C878.609 77.5595 881.632 84.7873 881.632 92.6722V125H870.33V92.6722C870.33 82.8161 862.445 74.6684 852.589 74.6684C842.865 74.6684 834.848 82.8161 834.848 92.6722V125H823.547V64.8124H834.848V70.5946C839.973 66.6522 846.15 63.6297 852.589 63.6297C860.343 63.6297 867.702 66.5208 873.221 72.0402ZM903.714 55.0878C899.509 55.0878 896.224 51.671 896.224 47.5972C896.224 43.5233 899.509 40.238 903.714 40.238C907.788 40.238 911.074 43.5233 911.074 47.5972C911.074 51.671 907.788 55.0878 903.714 55.0878ZM898.064 125V64.8124H909.365V125H898.064ZM970.265 106.733L979.464 113.436C978.413 114.75 977.362 116.064 976.179 117.247C970.265 123.16 962.38 126.314 953.97 126.314C945.559 126.314 937.543 123.16 931.63 117.247C925.716 111.202 922.431 103.317 922.431 94.9062C922.431 86.4957 925.716 78.6109 931.63 72.5658C937.543 66.6522 945.559 63.4983 953.97 63.4983C962.38 63.4983 970.265 66.6522 976.179 72.5658C977.362 73.7485 978.413 74.9313 979.333 76.2454L970.265 82.9475C966.586 77.9538 960.672 74.537 953.97 74.537C942.8 74.537 933.732 83.736 933.732 94.9062C933.732 106.076 942.8 115.275 953.97 115.275C960.672 115.275 966.586 111.859 970.265 106.733ZM1030.72 98.0601C1032.56 100.688 1033.48 103.842 1033.48 107.259C1033.48 110.676 1032.56 113.961 1030.59 116.721C1028.75 119.481 1026.12 121.583 1022.57 123.292C1019.42 124.737 1015.61 125.526 1011.8 125.526C1009.7 125.526 1007.72 125.263 1005.62 124.869C999.051 123.554 992.875 120.663 987.618 116.195L994.714 108.442C1001.68 114.355 1007.59 115.538 1011.27 115.538C1013.77 115.538 1016.13 115.013 1018.24 114.093C1019.95 113.304 1022.97 111.333 1022.97 107.259C1022.97 103.185 1019.42 100.688 1011.27 99.2429C1010.88 99.1114 1000.89 97.2716 997.211 95.169C991.692 92.0151 988.801 87.1528 988.801 81.1077C988.801 77.8224 989.852 74.6684 991.692 71.9087C993.4 69.5433 995.766 67.7035 999.183 66.1265C1002.34 64.681 1005.75 63.8925 1009.56 63.8925C1011.01 63.8925 1012.59 64.0239 1014.03 64.1553C1019.81 65.0752 1025.47 67.5721 1030.2 71.3831L1023.63 79.0051C1017.71 74.4056 1012.59 73.7485 1010.09 73.7485C1007.72 73.7485 1005.49 74.1428 1003.65 75.0627C1001.02 76.3768 999.314 78.7423 999.314 81.1077C999.314 85.0501 1002.47 87.1528 1010.48 88.8612C1010.62 88.8612 1021.39 91.2266 1024.41 92.935C1027.96 94.7748 1029.28 96.2203 1030.72 98.0601Z" fill="#707072"/>
<circle cx="112.5" cy="112.5" r="112.5" fill="#2D5A4A"/>
<mask id="mask0_81_2" style="mask-type:alpha" maskUnits="userSpaceOnUse" x="0" y="0" width="225" height="225">
<circle cx="112.5" cy="112.5" r="112.5" fill="#2D5A4A"/>
</mask>
<g mask="url(#mask0_81_2)">
<path d="M111.907 -47.5889H178.567V124.758C178.567 141.968 172.023 157.966 159.903 170.086C147.783 182.206 131.784 188.509 114.574 188.509C97.8481 188.509 81.8497 182.449 69.9721 170.814L69.4873 170.329L87.4249 157.239L87.6673 157.482C95.1817 163.784 104.635 167.42 114.574 167.42C137.844 167.42 156.994 148.028 156.994 124.758V-26.2577H111.907V-47.5889Z" fill="white"/>
</g>
</svg>
